<svg width="25" height="17" viewBox="0 0 25 17" fill="none" xmlns="http://www.w3.org/2000/svg">
<path d="M23.4586 8.50005H11.4498V13.8348C11.4496 14.145 11.3628 14.449 11.1992 14.7126C11.0356 14.9762 10.8016 15.1888 10.5237 15.3266C10.2458 15.4644 9.93497 15.5218 9.62615 15.4925C9.31733 15.4633 9.02289 15.3483 8.77584 15.1607L3.29955 11.0017C2.91316 10.709 2.59981 10.3308 2.38406 9.89681C2.16831 9.46277 2.05602 8.98475 2.05602 8.50005C2.05602 8.01536 2.16831 7.53723 2.38406 7.1032C2.59981 6.66916 2.91316 6.29096 3.29955 5.99833L8.77584 1.83927C9.02289 1.65166 9.31733 1.53674 9.62615 1.50745C9.93497 1.47816 10.2458 1.5356 10.5237 1.67341C10.8016 1.81122 11.0356 2.02385 11.1992 2.2874C11.3628 2.55096 11.4496 2.85502 11.4498 3.16523V4.30117" stroke="#FFFDF9" stroke-width="2.15865" stroke-linecap="round" stroke-linejoin="round"/>
</svg>
