<svg width="19" height="20" viewBox="0 0 19 20" fill="none" xmlns="http://www.w3.org/2000/svg">
<path d="M10.722 18.9749L10.2595 19H8.89578L8.43329 18.9749H8.35621L8.1072 18.9561H7.97084L7.75443 18.9342L7.45798 18.8997H7.38386C4.70686 18.5487 2.05356 17.3608 1.40729 14.1607C1.12387 12.8434 1.00331 11.4927 1.04859 10.1426C1.01353 8.86046 1.12602 7.57856 1.38358 6.32511L1.40432 6.30317C1.7571 4.72037 2.43896 3.26295 3.70779 2.38223C5.32645 1.26017 7.34236 1.00003 9.19818 1.00003H9.95412C11.8129 0.996893 13.8288 1.26017 15.4445 2.38223C16.7133 3.26295 17.3952 4.73604 17.7509 6.30317L17.7687 6.32511C18.0263 7.57856 18.1388 8.86046 18.1037 10.1426C18.1504 11.4928 18.0299 12.8436 17.745 14.1607C17.1047 17.3608 14.4365 18.5393 11.7684 18.8997H11.6973L11.4008 18.9342L11.1815 18.9561H11.0481L10.799 18.9749H10.722Z" stroke="#FFFDF9" stroke-width="1.53215" stroke-linejoin="round"/>
</svg>
