<svg width="21" height="97" viewBox="0 0 21 97" fill="none" xmlns="http://www.w3.org/2000/svg">
<path d="M12.0266 63.6427C10.0156 68.7141 8.48164 73.9808 7.44684 79.3679C6.72171 83.3898 6.14923 90.0263 9.46956 92.922C10.135 93.5949 10.9585 94.0686 11.8554 94.2947C12.7523 94.5209 13.6902 94.491 14.5725 94.2083C15.4549 93.9257 16.2498 93.4003 16.8756 92.6864C17.5014 91.9725 17.9354 91.0965 18.133 90.1472C18.6291 86.6884 17.6749 71.2839 17.5604 67.3023C17.5604 64.6881 17.5604 62.0336 17.5604 59.2585C17.5604 44.3776 17.0644 19.6037 17.0262 4.72277C16.9951 4.272 16.8426 3.83922 16.5864 3.47673C16.3302 3.11425 15.9811 2.83703 15.5802 2.67648C15.1793 2.51594 14.7432 2.4787 14.3233 2.57044C13.9033 2.66218 13.517 2.87869 13.2097 3.19395C3.28693 15.8628 -0.949367 32.353 5.19514 47.9578C6.23284 50.7851 7.91944 53.2969 10.104 55.2691C12.2885 57.2413 14.9028 58.6117 17.7131 59.2585" stroke="#FD5D69" stroke-width="4.30892" stroke-linecap="round" stroke-linejoin="round"/>
</svg>
