<svg width="25" height="96" viewBox="0 0 25 96" fill="none" xmlns="http://www.w3.org/2000/svg">
<path d="M10.7287 40.7586C10.2707 49.4458 8.51515 57.9718 7.37022 66.5786C6.34039 72.0885 5.84172 77.6936 5.8818 83.3092C6.18712 87.6126 7.67557 93.4042 12.7133 93.4444C14.0939 93.4884 15.4451 93.0191 16.5298 92.1179C17.7441 90.8258 18.5789 89.1913 18.9341 87.4116C19.5406 84.7813 19.7594 82.0683 19.5829 79.3679C19.5829 75.0645 18.6288 70.8821 18.0563 66.6591C16.9114 58.0524 15.1558 49.5263 14.6978 40.8391M9.27841 3.11345L9.27841 23.2228M16.3007 23.102L16.3007 2.99267M3.05762 3.11345L3.05762 30.6636C3.06767 33.359 4.08818 35.9413 5.89679 37.8472C7.7054 39.7532 10.1555 40.8285 12.7133 40.8391C15.271 40.8285 17.7211 39.7532 19.5297 37.8472C21.3384 35.9413 22.3589 33.359 22.3689 30.6636L22.3689 3.11345" stroke="#FD5D69" stroke-width="4.30892" stroke-linecap="round" stroke-linejoin="round"/>
</svg>
