<svg width="20" height="20" viewBox="0 0 20 20" fill="none" xmlns="http://www.w3.org/2000/svg">
<path d="M8.78676 15.0302C11.3977 17.0645 14.2123 17.7049 15.8024 16.3896C17.8809 14.6719 17.0785 10.2672 14.0062 6.54959L13.4491 5.9729M11.2775 3.9779C8.79168 2.19392 6.1881 1.68842 4.68141 2.93254C2.60297 4.65026 3.40784 9.05496 6.47766 12.7726M14.0283 4.98397C16.1754 4.78766 17.8244 5.25389 18.3447 6.38759C19.2403 8.3507 16.4134 11.5628 12.0283 13.5677C7.64324 15.5725 3.36366 15.6069 2.45818 13.6462C1.55269 11.6856 4.38938 8.47096 8.77449 6.46613C9.49611 6.1352 10.2378 5.84999 10.9953 5.61218M7.57207 18.527C7.7144 18.5589 7.85183 18.5884 7.98434 18.6129C8.68694 18.7522 9.4035 18.8082 10.1192 18.7797C10.1192 18.7797 16.3914 19.2411 18.5925 13.4425C19.4513 11.1541 19.4513 8.6319 18.5925 6.34345C16.384 0.547366 10.1192 1.0087 10.1192 1.0087C10.1192 1.0087 3.84708 0.547366 1.64594 6.34345C0.784687 8.63146 0.784687 11.1545 1.64594 13.4425C2.21961 15.0359 3.29407 16.4005 4.70839 17.332C4.90715 17.462 5.10838 17.5774 5.31205 17.6878M12.3277 5.97044C12.5586 5.98373 12.7879 5.92472 12.9836 5.80156C13.1793 5.6784 13.3318 5.49723 13.4197 5.28334C13.5302 4.98824 13.5302 4.66315 13.4197 4.36805C13.3207 4.16257 13.1657 3.98919 12.9725 3.86786C12.7793 3.74654 12.5558 3.6822 12.3277 3.6822C12.0996 3.6822 11.8761 3.74654 11.683 3.86786C11.4898 3.98919 11.3348 4.16257 11.2358 4.36805C11.1253 4.66315 11.1253 4.98824 11.2358 5.28334C11.324 5.49701 11.4765 5.67797 11.6722 5.80108C11.8678 5.92419 12.0969 5.98336 12.3277 5.97044ZM6.48747 18.9982C6.71828 19.0111 6.94739 18.9519 7.14304 18.8287C7.3387 18.7056 7.49122 18.5247 7.57945 18.3111C7.68992 18.016 7.68992 17.6909 7.57945 17.3958C7.48041 17.1903 7.3254 17.0169 7.13223 16.8956C6.93906 16.7743 6.71558 16.7099 6.48747 16.7099C6.25936 16.7099 6.03589 16.7743 5.84272 16.8956C5.64956 17.0169 5.49453 17.1903 5.39549 17.3958C5.28502 17.6909 5.28502 18.016 5.39549 18.3111C5.48342 18.5249 5.63588 18.7061 5.83161 18.8292C6.02734 18.9524 6.2566 19.0115 6.48747 18.9982Z" stroke="#FFFDF9" stroke-width="1.22694" stroke-linecap="round" stroke-linejoin="round"/>
</svg>
