<svg width="20" height="20" viewBox="0 0 20 20" fill="none" xmlns="http://www.w3.org/2000/svg">
<path d="M18.4996 13.0127C18.0549 14.1327 17.3837 15.15 16.5276 16.0017C15.1168 17.406 13.2698 18.295 11.2866 18.5242C9.30341 18.7534 7.30054 18.3094 5.60324 17.2643C5.49832 17.1966 5.37466 17.1633 5.24969 17.1692C5.12473 17.1751 5.00477 17.2199 4.9068 17.2973C4.08432 17.9566 1.95851 19.5391 1.22889 18.8138C0.49928 18.0885 2.06464 15.9456 2.72792 15.1214C2.80325 15.0239 2.84624 14.9056 2.85099 14.7828C2.85575 14.6599 2.82201 14.5387 2.75444 14.4357C1.64484 12.6625 1.20634 10.5546 1.51746 8.48933C1.82858 6.42408 2.86899 4.53633 4.45245 3.16403C6.06783 1.7685 8.13592 1 10.2761 1C12.4162 1 14.4844 1.7685 16.0997 3.16403C17.0107 3.95752 17.7482 4.92843 18.2665 6.01666C18.7848 7.10489 19.0729 8.28728 19.113 9.49066C19.1531 10.694 18.9444 11.8928 18.4996 13.0127Z" stroke="#FFFDF9" stroke-width="1.43" stroke-linecap="round" stroke-linejoin="round"/>
</svg>
